<svg xmlns="http://www.w3.org/2000/svg" width="88" height="73" viewBox="0 0 88 73">
  <g id="computer-icon" transform="translate(-36.5 -45)">
    <g id="Group" transform="translate(37 45)">
      <path id="Rectangle" d="M0,47H87v9a6,6,0,0,1-6,6H6a6,6,0,0,1-6-6Z" fill="#fcbb51" stroke="#707070" stroke-width="1"/>
      <circle id="Oval-Copy" cx="3.5" cy="3.5" r="3.5" transform="translate(40 50)" fill="#d4d4ce"/>
      <path id="Combined-Shape" d="M43.5,60H51a9.293,9.293,0,0,0,.783,6.566A13.528,13.528,0,0,0,57,72H30.5a13.528,13.528,0,0,0,5.217-5.434A9.293,9.293,0,0,0,36.5,60Z" fill="#fcbb51" stroke="#707070" stroke-width="1"/>
      <rect id="Rectangle-2" data-name="Rectangle" width="84" height="59" rx="5" transform="translate(1.5 1.5)" fill="none" stroke="#d4d4ce" stroke-width="3"/>
      <path id="Path-5" d="M27,71.5H60" fill="none" stroke="#d4d4ce" stroke-linecap="round" stroke-linejoin="round" stroke-width="3"/>
    </g>
  </g>
</svg>
