<svg xmlns="http://www.w3.org/2000/svg" width="37" height="37" viewBox="0 0 37 37">
  <g id="facebook-logo" transform="translate(0.5 0.5)">
    <path id="Facebook__x28_alt_x29_" d="M36,6a6.219,6.219,0,0,0-6-6H6A6.219,6.219,0,0,0,0,6V30a6.219,6.219,0,0,0,6,6H18V22.4H13.6v-6H18V14.062C18,10.031,21.027,6.4,24.75,6.4H29.6v6H24.75c-.531,0-1.15.644-1.15,1.61V16.4h6v6h-6V36H30a6.218,6.218,0,0,0,6-6Z" transform="translate(0 0)" fill="#fff1f1" stroke="#707070" stroke-width="1" opacity="0.5"/>
  </g>
</svg>
