<svg xmlns="http://www.w3.org/2000/svg" width="37" height="37" viewBox="0 0 37 37">
  <g id="instagram-logo" transform="translate(0.5 0.5)" opacity="0.5">
    <path id="Path_54" data-name="Path 54" d="M26.065,0H9.934A9.946,9.946,0,0,0,0,9.935V26.065A9.946,9.946,0,0,0,9.934,36H26.065A9.946,9.946,0,0,0,36,26.065V9.935A9.946,9.946,0,0,0,26.065,0Zm6.741,26.065a6.748,6.748,0,0,1-6.741,6.741H9.934a6.748,6.748,0,0,1-6.74-6.741V9.935a6.748,6.748,0,0,1,6.74-6.741H26.065a6.748,6.748,0,0,1,6.741,6.741V26.065Z" transform="translate(0 0)" fill="#fff1f1" stroke="#707070" stroke-width="1"/>
    <path id="Path_55" data-name="Path 55" d="M50.572,40.97a9.6,9.6,0,1,0,9.6,9.6A9.615,9.615,0,0,0,50.572,40.97Zm0,15.9a6.3,6.3,0,1,1,6.3-6.3A6.3,6.3,0,0,1,50.572,56.87Z" transform="translate(-32.572 -32.573)" fill="#fff1f1" stroke="#707070" stroke-width="1"/>
    <path id="Path_56" data-name="Path 56" d="M121.175,28.251a2.253,2.253,0,1,0,1.594.66A2.263,2.263,0,0,0,121.175,28.251Z" transform="translate(-93.456 -22.201)" fill="#fff1f1" stroke="#707070" stroke-width="1"/>
  </g>
</svg>
