<svg xmlns="http://www.w3.org/2000/svg" width="81.051" height="70.736" viewBox="0 0 81.051 70.736">
  <g id="location-icon" transform="translate(-40.009 -49.264)">
    <g id="Group-2" transform="translate(40 40)">
      <g id="Group" transform="translate(0 39)">
        <path id="Rectangle" d="M49.877,1.5,40.035,19,29.646,1.5H12.594a1.8,1.8,0,0,0-1.738,1.331l-9.285,34.4A1.8,1.8,0,0,0,3.309,39.5H77.691a1.8,1.8,0,0,0,1.738-2.269l-9.285-34.4A1.8,1.8,0,0,0,68.406,1.5Z" fill="none" stroke="#d4d4ce" stroke-width="3" fill-rule="evenodd"/>
        <path id="Oval" d="M40,32c11.046,0,20-5.82,20-13,0-5.569-5.388-10.321-12.96-12.172L40,18,33.028,6.812C25.42,8.651,20,13.414,20,19,20,26.18,28.954,32,40,32Z" fill="#fcbb51" stroke="#707070" stroke-width="1"/>
      </g>
      <path id="Combined-Shape" d="M22.982,28.035l-.6-1.049-1.3.742-.37,1.454,2.972.756Zm34.037,0-.694,1.882,2.956-.734-.361-1.456-1.3-.742ZM40,30.273a9.652,9.652,0,0,1-9.546-9.754,9.548,9.548,0,1,1,19.092,0A9.652,9.652,0,0,1,40,30.273Z" fill="none" stroke="#d4d4ce" stroke-width="3" fill-rule="evenodd"/>
    </g>
  </g>
</svg>
