<svg xmlns="http://www.w3.org/2000/svg" width="45.961" height="37" viewBox="0 0 45.961 37">
  <g id="twitter-logo-silhouette" transform="translate(991.269 -284.941)">
    <g id="Group_11" data-name="Group 11" transform="translate(-990.999 285.441)">
      <path id="Path_57" data-name="Path 57" d="M44.32,61.7a18.156,18.156,0,0,1-5.22,1.432,9.129,9.129,0,0,0,4-5.027,18.329,18.329,0,0,1-5.777,2.207A9.1,9.1,0,0,0,21.827,68.6,25.812,25.812,0,0,1,3.089,59.1,9.1,9.1,0,0,0,5.9,71.238,9.092,9.092,0,0,1,1.784,70.1v.114a9.1,9.1,0,0,0,7.292,8.915,9.21,9.21,0,0,1-2.4.318,8.726,8.726,0,0,1-1.712-.169A9.1,9.1,0,0,0,13.46,85.59,18.241,18.241,0,0,1,2.169,89.475,19.321,19.321,0,0,1,0,89.351a25.7,25.7,0,0,0,13.936,4.09c16.725,0,25.867-13.853,25.867-25.867l-.03-1.177A18.155,18.155,0,0,0,44.32,61.7Z" transform="translate(-0.001 -57.441)" fill="#fff1f1" stroke="#707070" stroke-width="1" opacity="0.5"/>
    </g>
  </g>
</svg>
